<?xml version="1.0" encoding="UTF-8" standalone="no"?>
<svg
   xmlns:dc="http://purl.org/dc/elements/1.1/"
   xmlns:cc="http://creativecommons.org/ns#"
   xmlns:rdf="http://www.w3.org/1999/02/22-rdf-syntax-ns#"
   xmlns:svg="http://www.w3.org/2000/svg"
   xmlns="http://www.w3.org/2000/svg"
   xmlns:sodipodi="http://sodipodi.sourceforge.net/DTD/sodipodi-0.dtd"
   xmlns:inkscape="http://www.inkscape.org/namespaces/inkscape"
   version="1.1"
   width="100"
   height="100"
   id="svg2"
   inkscape:version="0.48.1 r9760"
   sodipodi:docname="Former_UbuntuCoF_10_04.svg"
   inkscape:export-filename="/mnt/read/devent/Projects/com.anrisoftware/sscontrol/sscontrol-docu/Former_UbuntuCoF_10_04.png"
   inkscape:export-xdpi="159.97459"
   inkscape:export-ydpi="159.97459">
  <metadata
     id="metadata14">
    <rdf:RDF>
      <cc:Work
         rdf:about="">
        <dc:format>image/svg+xml</dc:format>
        <dc:type
           rdf:resource="http://purl.org/dc/dcmitype/StillImage" />
        <dc:title></dc:title>
      </cc:Work>
    </rdf:RDF>
  </metadata>
  <defs
     id="defs12" />
  <sodipodi:namedview
     pagecolor="#ffffff"
     bordercolor="#666666"
     borderopacity="1"
     objecttolerance="10"
     gridtolerance="10"
     guidetolerance="10"
     inkscape:pageopacity="0"
     inkscape:pageshadow="2"
     inkscape:window-width="640"
     inkscape:window-height="480"
     id="namedview10"
     showgrid="false"
     inkscape:zoom="3.01"
     inkscape:cx="3.986711"
     inkscape:cy="50"
     inkscape:window-x="0"
     inkscape:window-y="0"
     inkscape:window-maximized="1"
     inkscape:current-layer="svg2" />
  <circle
     sodipodi:ry="9.1239996"
     sodipodi:rx="9.1239996"
     sodipodi:cy="46.903999"
     sodipodi:cx="9.1239996"
     id="orange-circle"
     cx="9.1239996"
     cy="46.903999"
     r="9.1239996"
     transform="matrix(0.99207442,0,0,0.99207442,5.0000008,3.4751823)"
     style="fill:#ff6309" />
  <circle
     sodipodi:ry="9.1239996"
     sodipodi:rx="9.1239996"
     sodipodi:cy="84.667"
     sodipodi:cx="74.547997"
     id="yellow-circle"
     cx="74.547997"
     cy="84.667"
     r="9.1239996"
     transform="matrix(0.99207442,0,0,0.99207442,5.0000008,3.4751823)"
     style="fill:#ffb515" />
  <circle
     sodipodi:ry="9.1239996"
     sodipodi:rx="9.1239996"
     sodipodi:cy="9.1260004"
     sodipodi:cx="74.540001"
     id="red-circle"
     cx="74.540001"
     cy="9.1260004"
     r="9.1239996"
     transform="matrix(0.99207442,0,0,0.99207442,5.0000008,3.4751823)"
     style="fill:#c90016" />
  <g
     id="g3009">
    <path
       style="fill:#ff6309"
       d="m 57.321014,27.609377 c 11.270956,0 20.622251,8.369139 22.170878,19.219455 l 15.508107,0 C 94.295626,38.302945 90.760867,30.35643 84.851079,24.089497 c -3.784765,1.927599 -8.438584,1.964306 -12.392002,-0.317464 -3.956393,-2.284747 -6.252052,-6.336379 -6.472294,-10.582458 -2.808563,-0.65477 -5.71038,-0.994059 -8.665769,-0.994059 -5.658793,0 -11.127106,1.235133 -16.100377,3.577419 l 7.763975,13.447571 c 2.5784,-1.03771 5.391926,-1.611129 8.336402,-1.611129 z"
       id="orange-arm"
       inkscape:connector-curvature="0" />
    <path
       style="fill:#ffb515"
       d="m 34.923942,50.007439 c 0,-7.13599 3.354203,-13.502131 8.567554,-17.606345 L 35.729505,18.95551 c -1.820457,1.27184 -3.542696,2.711341 -5.146881,4.314533 -4.492113,4.492112 -7.713379,9.915782 -9.486216,15.835492 3.571468,2.313518 5.936573,6.329435 5.936573,10.901904 0,4.57148 -2.365105,8.588389 -5.936573,10.900914 1.772837,5.919711 4.994103,11.343381 9.486216,15.835492 1.603193,1.603193 3.323448,3.040709 5.142913,4.313541 L 43.48852,67.61081 C 38.276161,63.506597 34.923942,57.140455 34.923942,50.007439 z"
       id="yellow-arm"
       inkscape:connector-curvature="0" />
    <path
       style="fill:#c90016"
       d="m 79.492884,53.176125 c -1.544659,10.854288 -10.897938,19.228389 -22.17187,19.228389 -2.946463,0 -5.760978,-0.573419 -8.339378,-1.613116 l -7.764967,13.448563 c 4.972276,2.343281 10.442576,3.579403 16.103353,3.579403 2.957373,0 5.86316,-0.341273 8.672715,-0.996043 0.216272,-4.251039 2.512923,-8.309615 6.472292,-10.595353 3.95441,-2.283755 8.610213,-2.247048 12.39597,-0.315481 5.904828,-6.267925 9.435619,-14.213451 10.138008,-22.736362 l -15.506123,0 z"
       id="red-arm"
       inkscape:connector-curvature="0" />
  </g>
  <text
     xml:space="preserve"
     style="font-size:18px;font-style:normal;font-variant:normal;font-weight:bold;font-stretch:normal;line-height:125%;letter-spacing:0px;word-spacing:0px;fill:#000000;fill-opacity:1;stroke:none;font-family:DejaVu Sans;-inkscape-font-specification:Sans Bold"
     x="38.786972"
     y="57.122185"
     id="text2991"
     sodipodi:linespacing="125%"><tspan
       sodipodi:role="line"
       id="tspan2993"
       x="38.786972"
       y="57.122185"
       style="font-style:normal;font-variant:normal;font-weight:bold;font-stretch:normal;font-family:Impact;-inkscape-font-specification:Impact Bold">10.04</tspan></text>
</svg>
